<?xml version="1.0" standalone="no"?>
<!DOCTYPE svg PUBLIC "-//W3C//DTD SVG 20010904//EN"
 "http://www.w3.org/TR/2001/REC-SVG-20010904/DTD/svg10.dtd">
<svg version="1.0" xmlns="http://www.w3.org/2000/svg"
 width="512.000000pt" height="512.000000pt" viewBox="0 0 512.000000 512.000000"
 preserveAspectRatio="xMidYMid meet">
<metadata>
Created by potrace 1.11, written by Peter Selinger 2001-2013
</metadata>
<g transform="translate(0.000000,512.000000) scale(0.100000,-0.100000)"
fill="#000000" stroke="none">
<path d="M468 3983 c-33 -4 -52 -20 -163 -136 -101 -106 -124 -136 -119 -152
3 -11 10 -265 15 -564 5 -300 12 -548 16 -552 5 -4 78 -44 163 -88 l155 -81
277 0 c153 0 278 -4 278 -8 0 -20 30 -442 36 -499 l6 -63 -226 0 -226 0 0 63
c0 56 -4 68 -32 105 l-32 42 -166 -6 c-91 -4 -168 -9 -171 -13 -3 -3 -16 -33
-28 -67 -22 -59 -22 -67 -12 -213 6 -84 11 -161 11 -170 0 -11 48 -58 119
-117 l120 -99 408 0 c224 -1 432 -5 461 -9 l52 -9 0 35 c0 26 20 63 88 165
l89 131 -9 213 c-5 118 -8 221 -8 229 0 8 4 103 10 210 5 107 10 204 10 215 7
159 -3 536 -20 710 -11 116 -20 273 -20 350 l0 140 -83 110 -82 110 -425 6
c-234 3 -432 8 -440 10 -8 3 -32 4 -52 2z m629 -718 c6 -132 14 -261 17 -287
l5 -48 -214 0 c-118 0 -218 -1 -222 -2 -14 -5 -15 244 -3 325 8 51 9 81 3 90
-10 11 -9 134 0 143 7 7 245 22 327 20 l75 -1 12 -240z"/>
<path d="M3643 3851 l-120 -135 13 -61 c10 -44 13 -190 14 -567 l0 -506 158
-84 157 -83 285 -5 285 -5 16 -235 c9 -129 18 -255 20 -280 l4 -45 -225 0
-225 0 -3 65 c-2 56 -7 70 -35 103 l-32 38 -169 -8 -170 -8 -24 -60 c-22 -56
-23 -69 -17 -190 11 -237 0 -212 134 -323 l116 -97 410 0 c225 -1 434 -5 463
-9 l52 -9 0 38 c0 30 16 60 87 163 l86 127 -2 165 c-1 91 -6 191 -12 223 -7
40 -7 75 0 110 6 29 13 225 17 437 5 339 3 412 -14 610 -11 124 -23 294 -27
377 l-5 153 -81 109 c-77 105 -82 110 -122 115 -23 3 -238 7 -478 9 l-436 3
-120 -135z m787 -370 c0 -35 17 -353 25 -468 l6 -82 -221 -3 -220 -3 0 160 c0
88 5 178 10 200 6 28 5 44 -3 55 -8 10 -11 38 -9 82 l4 66 81 6 c125 9 176 12
255 14 l72 2 0 -29z"/>
<path d="M2465 3794 c-137 -7 -293 -10 -345 -8 -52 3 -107 1 -121 -3 -17 -5
-66 -58 -137 -147 l-110 -139 14 -49 c9 -30 22 -180 35 -396 34 -596 39 -677
42 -685 1 -4 78 -43 170 -87 l168 -79 272 13 c150 8 273 13 274 12 1 -1 15
-120 31 -266 17 -146 33 -272 37 -281 5 -14 -9 -17 -117 -23 -68 -3 -169 -9
-224 -12 l-101 -6 -7 63 c-6 52 -13 71 -39 100 l-32 36 -140 -13 c-77 -7 -154
-13 -171 -13 -29 -1 -31 -4 -52 -78 l-22 -78 19 -168 c10 -92 20 -169 22 -171
2 -1 61 -44 131 -94 l128 -92 132 14 c193 21 525 39 661 35 l117 -4 0 32 c0
22 25 74 83 170 l83 138 -12 40 c-7 22 -13 72 -13 110 -1 39 -6 113 -12 165
-6 52 -13 203 -15 335 -10 477 -23 688 -59 948 -19 137 -33 253 -30 258 3 5 1
57 -6 115 l-12 107 -75 91 c-41 50 -83 99 -94 109 -24 20 -92 21 -473 1z m199
-496 c2 -18 16 -139 29 -268 14 -129 28 -242 32 -251 6 -15 -9 -18 -132 -24
-76 -4 -176 -10 -223 -15 -47 -4 -86 -7 -88 -5 -2 2 -4 95 -5 207 -1 111 -5
205 -8 208 -3 3 -9 38 -12 78 -5 63 -4 72 11 73 9 0 78 7 152 14 74 7 158 13
187 14 51 1 52 1 57 -31z"/>
</g>
</svg>
