<svg width="123" height="115" viewBox="0 0 123 115" fill="none" xmlns="http://www.w3.org/2000/svg">
<g filter="url(#filter0_d)">
<path d="M111.58 10.2012H11.4195C7.32764 10.2012 4 13.5288 4 17.6207V84.3951C4 88.4869 7.32764 91.8146 11.4195 91.8146H44.8065V101.089H31.8228V104.799H44.8065H78.1935H91.1772V101.089H78.1935V91.8146H111.58C115.672 91.8146 119 88.4869 119 84.3951V17.6207C119 13.5288 115.672 10.2012 111.58 10.2012ZM74.4837 101.089H48.5159V91.8142H74.4837V101.089ZM115.29 84.3951C115.29 86.4408 113.627 88.1048 111.58 88.1048H78.1935H44.8065H11.4195C9.37377 88.1048 7.70975 86.4412 7.70975 84.3951V17.6207C7.70975 15.5749 9.37338 13.9109 11.4195 13.9109H111.58C113.626 13.9109 115.29 15.5745 115.29 17.6207V84.3951Z" fill="#FFED00"/>
<path d="M11.4194 84.395H111.58V17.6206H11.4194V84.395ZM15.1288 21.3307H107.871V80.6856H15.1288V21.3307Z" fill="#FFED00"/>
<path d="M20.6933 28.7503C21.7177 28.7503 22.5481 27.9198 22.5481 26.8954C22.5481 25.871 21.7177 25.0405 20.6933 25.0405C19.6688 25.0405 18.8384 25.871 18.8384 26.8954C18.8384 27.9198 19.6688 28.7503 20.6933 28.7503Z" fill="#FFED00"/>
<path d="M26.2582 28.7503C27.2826 28.7503 28.1131 27.9198 28.1131 26.8954C28.1131 25.871 27.2826 25.0405 26.2582 25.0405C25.2338 25.0405 24.4033 25.871 24.4033 26.8954C24.4033 27.9198 25.2338 28.7503 26.2582 28.7503Z" fill="#FFED00"/>
<path d="M31.8226 28.7503C32.8471 28.7503 33.6775 27.9198 33.6775 26.8954C33.6775 25.871 32.8471 25.0405 31.8226 25.0405C30.7982 25.0405 29.9678 25.871 29.9678 26.8954C29.9678 27.9198 30.7982 28.7503 31.8226 28.7503Z" fill="#FFED00"/>
<path d="M24.8384 74.2581H36.8063V52H24.8384V74.2581ZM28.5481 55.7094H33.0965V70.548H28.5481V55.7094Z" fill="#FFED00"/>
<path d="M40 74.2581H51.9679V39H40V74.2581ZM43.7098 42.7094H48.2581V70.548H43.7098V42.7094Z" fill="#FFED00"/>
<path d="M55 74.2581H66.9679V62H55V74.2581ZM58.7098 65.7094H63.2581V70.548H58.7098V65.7094Z" fill="#FFED00"/>
<path d="M70 74.2581H81.9679V48H70V74.2581ZM73.7098 51.7094H78.2581V70.548H73.7098V51.7094Z" fill="#FFED00"/>
<path d="M85 74.2581H96.9679V60H85V74.2581ZM88.7098 63.7094H93.2581V70.548H88.7098V63.7094Z" fill="#FFED00"/>
</g>
<defs>
<filter id="filter0_d" x="0" y="0" width="123" height="123" filterUnits="userSpaceOnUse" color-interpolation-filters="sRGB">
<feFlood flood-opacity="0" result="BackgroundImageFix"/>
<feColorMatrix in="SourceAlpha" type="matrix" values="0 0 0 0 0 0 0 0 0 0 0 0 0 0 0 0 0 0 127 0"/>
<feOffset dy="4"/>
<feGaussianBlur stdDeviation="2"/>
<feColorMatrix type="matrix" values="0 0 0 0 0 0 0 0 0 0 0 0 0 0 0 0 0 0 0.25 0"/>
<feBlend mode="normal" in2="BackgroundImageFix" result="effect1_dropShadow"/>
<feBlend mode="normal" in="SourceGraphic" in2="effect1_dropShadow" result="shape"/>
</filter>
</defs>
</svg>
