<svg width="193" height="227" viewBox="0 0 193 227" fill="none" xmlns="http://www.w3.org/2000/svg">
<circle cx="99" cy="75" r="70.5" stroke="#ECCB00" stroke-width="9"/>
<path d="M123.172 106.512V114H65.7247V108.033L99.7717 74.688C104.062 70.476 106.948 66.849 108.43 63.807C109.99 60.687 110.77 57.567 110.77 54.447C110.77 49.611 109.093 45.867 105.739 43.215C102.463 40.485 97.7437 39.12 91.5817 39.12C81.9877 39.12 74.5387 42.162 69.2347 48.246L63.2677 43.098C66.4657 39.354 70.5217 36.468 75.4357 34.44C80.4277 32.412 86.0437 31.398 92.2837 31.398C100.63 31.398 107.221 33.387 112.057 37.365C116.971 41.265 119.428 46.647 119.428 53.511C119.428 57.723 118.492 61.779 116.62 65.679C114.748 69.579 111.199 74.064 105.973 79.134L78.1267 106.512H123.172Z" fill="#ECCB00"/>
</svg>
