<svg width="199" height="174" viewBox="0 0 199 174" fill="none" xmlns="http://www.w3.org/2000/svg">
<circle cx="96" cy="75" r="70.5" stroke="#ECCB00" stroke-width="9"/>
<path d="M98.3202 77.2C106.9 77.668 113.413 80.008 117.859 84.22C122.383 88.354 124.645 93.775 124.645 100.483C124.645 105.163 123.514 109.336 121.252 113.002C118.99 116.59 115.636 119.437 111.19 121.543C106.744 123.649 101.323 124.702 94.9272 124.702C88.9992 124.702 83.3832 123.766 78.0792 121.894C72.8532 119.944 68.6412 117.37 65.4432 114.172L69.5382 107.503C72.2682 110.311 75.8952 112.612 80.4192 114.406C84.9432 116.122 89.7792 116.98 94.9272 116.98C101.635 116.98 106.822 115.537 110.488 112.651C114.154 109.687 115.987 105.631 115.987 100.483C115.987 95.413 114.154 91.435 110.488 88.549C106.822 85.663 101.284 84.22 93.8742 84.22H88.0242V78.019L110.722 49.588H68.8362V42.1H121.486V48.067L98.3202 77.2Z" fill="#ECCB00"/>
</svg>
