<svg width="123" height="110" viewBox="0 0 123 110" fill="none" xmlns="http://www.w3.org/2000/svg">
<g filter="url(#filter0_d)">
<path fill-rule="evenodd" clip-rule="evenodd" d="M81.0891 10.9109H11.4195C9.37338 10.9109 7.70975 12.5749 7.70975 14.6207V81.3951C7.70975 83.4412 9.37377 85.1048 11.4195 85.1048H44.8065H78.1935H111.58C113.627 85.1048 115.29 83.4408 115.29 81.3951V14.6207C115.29 14.3594 115.263 14.1044 115.212 13.8583L118.662 12.4053C118.882 13.1051 119 13.8493 119 14.6207V81.3951C119 85.4869 115.672 88.8146 111.58 88.8146H78.1935V98.0889H91.1772V101.799H78.1935H44.8065H31.8228V98.0889H44.8065V88.8146H11.4195C7.32764 88.8146 4 85.4869 4 81.3951V14.6207C4 10.5288 7.32764 7.20117 11.4195 7.20117H84.7988L81.0891 10.9109ZM57.4196 14.6206H11.4194V81.395H111.58V26.2816L107.871 29.4349V77.6856H15.1288V18.3307H54.9462L57.4196 14.6206ZM48.5159 98.0886H74.4837V88.8142H48.5159V98.0886ZM20.6933 25.7503C21.7177 25.7503 22.5481 24.9198 22.5481 23.8954C22.5481 22.871 21.7177 22.0405 20.6933 22.0405C19.6688 22.0405 18.8384 22.871 18.8384 23.8954C18.8384 24.9198 19.6688 25.7503 20.6933 25.7503ZM28.1131 23.8954C28.1131 24.9198 27.2826 25.7503 26.2582 25.7503C25.2338 25.7503 24.4033 24.9198 24.4033 23.8954C24.4033 22.871 25.2338 22.0405 26.2582 22.0405C27.2826 22.0405 28.1131 22.871 28.1131 23.8954ZM31.8227 25.7503C32.8471 25.7503 33.6775 24.9198 33.6775 23.8954C33.6775 22.871 32.8471 22.0405 31.8227 22.0405C30.7982 22.0405 29.9678 22.871 29.9678 23.8954C29.9678 24.9198 30.7982 25.7503 31.8227 25.7503Z" fill="#FFED00"/>
<path d="M49.2969 65.6181C50.0131 65.6181 50.5937 65.0375 50.5937 64.3213C50.5937 63.605 50.0131 63.0244 49.2969 63.0244C48.5806 63.0244 48 63.605 48 64.3213C48 65.0375 48.5806 65.6181 49.2969 65.6181Z" fill="#FFED00"/>
<path d="M82.4203 32.7253C83.1351 32.7253 83.7145 32.1458 83.7145 31.431C83.7145 30.7162 83.1351 30.1367 82.4203 30.1367C81.7054 30.1367 81.126 30.7162 81.126 31.431C81.126 32.1458 81.7054 32.7253 82.4203 32.7253Z" fill="#FFED00"/>
<path d="M99.369 15.0231C98.3286 13.9826 96.9452 13.4097 95.4738 13.4097C94.0024 13.4097 92.6189 13.9828 91.5786 15.0231C89.4308 17.1711 89.4308 20.6659 91.5786 22.8137C92.6527 23.8876 94.063 24.4244 95.4738 24.4244C96.8843 24.4244 98.2952 23.8874 99.369 22.8137C101.517 20.6657 101.517 17.1709 99.369 15.0231ZM97.5389 20.9833C96.4002 22.1218 94.5473 22.1218 93.4089 20.9833C92.2702 19.8447 92.2702 17.992 93.4089 16.8533C93.9605 16.3017 94.6938 15.998 95.4738 15.998C96.2539 15.998 96.9871 16.3017 97.5388 16.8533C98.6774 17.992 98.6774 19.8447 97.5389 20.9833Z" fill="#FFED00"/>
<path d="M64.1668 52.8484C63.5269 52.5297 62.7501 52.7903 62.4314 53.43L60.8899 56.5259C60.2195 57.8718 58.8714 58.7719 57.3711 58.8745L55.5782 58.9972C55.2751 59.0175 55.0758 58.8665 54.9837 58.7744C54.8915 58.6822 54.7401 58.4825 54.7608 58.1797L54.8835 56.3869C54.9862 54.8868 55.8863 53.5385 57.2321 52.8681L60.3278 51.3266C60.9678 51.0079 61.2282 50.231 60.9095 49.5912C60.5909 48.9514 59.814 48.6909 59.1741 49.0095L56.0784 50.5511C53.9137 51.629 52.4663 53.7973 52.301 56.21L52.1783 58.0028C52.112 58.9706 52.4673 59.9188 53.1531 60.6047C53.7845 61.2361 54.6386 61.5875 55.5255 61.5875C55.6017 61.5875 55.6784 61.5849 55.7549 61.5796L57.5478 61.4569C59.9606 61.2918 62.1289 59.8445 63.2068 57.6795L64.7484 54.5838C65.067 53.9439 64.8066 53.1671 64.1668 52.8484Z" fill="#FFED00"/>
<path d="M113.11 0.862113C112.502 0.263832 111.666 -0.0490374 110.816 0.00626585L109.611 0.0830975C98.8057 0.772906 88.6934 5.98856 81.8671 14.3929L79.0306 17.885L71.6074 17.667C71.5948 17.6666 71.582 17.6665 71.5695 17.6665C65.6824 17.6665 60.1475 19.959 55.9846 24.1219L48.3816 31.725C48.02 32.0866 47.9051 32.6273 48.0887 33.1046C48.2723 33.5819 48.7196 33.9065 49.2303 33.9326L65.3242 34.7594L64.6681 35.5673C64.3374 35.9745 64.2851 36.541 64.5358 37.0017C64.788 37.4653 65.0522 37.9215 65.3279 38.3704L61.5113 42.9013C61.185 43.2886 61.1148 43.8308 61.3312 44.2887C62.1649 46.0503 63.2713 47.6331 64.6203 48.9931C66.0019 50.3864 67.6176 51.5257 69.4221 52.3798C69.5985 52.4633 69.7876 52.5042 69.9755 52.5042C70.267 52.5042 70.556 52.4057 70.7911 52.215C71.6134 51.548 72.5612 50.7569 73.4781 49.9919C74.1315 49.4466 74.8001 48.8888 75.4249 48.3745C75.7978 48.5989 76.1754 48.8165 76.5587 49.025C76.7526 49.1304 76.9651 49.1824 77.1769 49.1824C77.4587 49.1824 77.7387 49.0906 77.9705 48.9106L78.8527 48.2261L79.6831 64.3878C79.7094 64.8986 80.0339 65.3459 80.5111 65.5294C80.6622 65.5875 80.8192 65.6158 80.9752 65.6158C81.3123 65.6158 81.6434 65.4839 81.8906 65.2366L89.4937 57.6335C93.6567 53.4705 95.9491 47.9358 95.9491 42.0485V34.959L98.9485 32.6315C107.937 25.656 113.412 15.1376 113.968 3.77295L113.999 3.14308C114.041 2.29175 113.717 1.46052 113.11 0.862113ZM52.2701 31.497L57.8149 25.9523C61.4843 22.2828 66.3621 20.2599 71.5508 20.2549L76.9761 20.4142L67.3451 32.2715L52.2701 31.497ZM71.8197 48.0045C71.1441 48.5681 70.4515 49.1461 69.8087 49.6748C68.5655 49.0015 67.4409 48.1614 66.458 47.1703C65.5061 46.2106 64.6959 45.1178 64.0426 43.914L66.8369 40.5967C67.6818 41.7302 68.6066 42.8039 69.6057 43.8098C69.6064 43.8106 69.6072 43.8112 69.608 43.812C69.6083 43.8123 69.6085 43.8127 69.6088 43.8129C69.6092 43.8133 69.6095 43.8136 69.6099 43.8139C70.7177 44.9288 71.9092 45.9518 73.1732 46.877C72.7269 47.2475 72.2696 47.6291 71.8197 48.0045ZM93.3611 42.0485C93.3611 47.2443 91.3378 52.129 87.6637 55.8032L82.1189 61.3479L81.3452 46.292L93.361 36.9678V42.0485H93.3611ZM111.383 3.64649C110.864 14.2556 105.753 24.0748 97.362 30.5865L77.0635 46.3382C75.3802 45.3546 73.8112 44.1932 72.3752 42.8774L79.2187 36.034C79.724 35.5286 79.724 34.709 79.2187 34.2036C78.7132 33.6981 77.8937 33.6981 77.3882 34.2036L70.5512 41.0405C69.2942 39.6489 68.1809 38.1347 67.233 36.5152L83.8764 16.0248C90.2488 8.17929 99.6887 3.31028 109.776 2.6665L110.981 2.58966C111.139 2.57987 111.244 2.65825 111.293 2.7062C111.342 2.75403 111.422 2.85806 111.414 3.01675L111.383 3.64649Z" fill="#FFED00"/>
</g>
<defs>
<filter id="filter0_d" x="0" y="0" width="123" height="109.799" filterUnits="userSpaceOnUse" color-interpolation-filters="sRGB">
<feFlood flood-opacity="0" result="BackgroundImageFix"/>
<feColorMatrix in="SourceAlpha" type="matrix" values="0 0 0 0 0 0 0 0 0 0 0 0 0 0 0 0 0 0 127 0"/>
<feOffset dy="4"/>
<feGaussianBlur stdDeviation="2"/>
<feColorMatrix type="matrix" values="0 0 0 0 0 0 0 0 0 0 0 0 0 0 0 0 0 0 0.25 0"/>
<feBlend mode="normal" in2="BackgroundImageFix" result="effect1_dropShadow"/>
<feBlend mode="normal" in="SourceGraphic" in2="effect1_dropShadow" result="shape"/>
</filter>
</defs>
</svg>
