<svg width="200" height="174" viewBox="0 0 200 174" fill="none" xmlns="http://www.w3.org/2000/svg">
<circle cx="96.0723" cy="75.1289" r="70.5" stroke="#ECCB00" stroke-width="9"/>
<path d="M91.9602 74.8079C103.816 74.8079 112.435 76.9529 117.817 81.2429C123.277 85.4549 126.007 91.3829 126.007 99.0269C126.007 103.785 124.876 108.036 122.614 111.78C120.43 115.524 117.115 118.488 112.669 120.672C108.223 122.778 102.763 123.831 96.2892 123.831C90.4392 123.831 84.8622 122.895 79.5582 121.023C74.3322 119.073 70.1202 116.499 66.9222 113.301L71.0172 106.632C73.7472 109.44 77.3352 111.741 81.7812 113.535C86.2272 115.251 91.0242 116.109 96.1722 116.109C102.958 116.109 108.184 114.588 111.85 111.546C115.594 108.504 117.466 104.448 117.466 99.3779C117.466 93.7619 115.36 89.5109 111.148 86.6249C107.014 83.7389 99.9942 82.2959 90.0882 82.2959H72.6552L76.8672 41.2289H121.678V48.7169H84.2382L81.4302 74.8079H91.9602Z" fill="#ECCB00"/>
</svg>
