<svg width="30" height="30" viewBox="0 0 30 30" fill="none" xmlns="http://www.w3.org/2000/svg">
<path fill-rule="evenodd" clip-rule="evenodd" d="M3.81445 0C2.1576 0 0.814453 1.34315 0.814453 3V26.0625C0.814453 27.7194 2.1576 29.0625 3.81445 29.0625H15.3579V16.7576H13.1227V14.8045V11.8258H15.3579V9.57965C15.3579 7.5288 16.2072 4.40369 20.0965 4.40369H23.5834V8.65189H21.0352C20.6329 8.65189 20.0518 8.84721 20.0518 9.8238V11.777V11.8258H23.6728L23.4046 14.8045L23.2257 16.7576H19.8729V29.0625H26.8273C28.4841 29.0625 29.8273 27.7194 29.8273 26.0625V3C29.8273 1.34315 28.4841 0 26.8273 0H3.81445Z" fill="black"/>
</svg>
