<svg width="27" height="27" viewBox="0 0 27 27" fill="none" xmlns="http://www.w3.org/2000/svg">
<path d="M21.0608 27H5.93922C2.65702 27 0 24.1773 0 20.7409V6.21818C0 2.78182 2.65702 0 5.93922 0H21.0608C24.343 0 27 2.78182 27 6.21818V20.7409C27 24.1773 24.343 27 21.0608 27ZM5.93922 2.04545C3.75108 2.04545 1.95369 3.92727 1.95369 6.21818V20.7409C1.95369 23.0727 3.75108 24.9545 5.93922 24.9545H21.0608C23.2489 24.9545 25.0463 23.0727 25.0463 20.7818V6.21818C25.0463 3.92727 23.2489 2.04545 21.0608 2.04545H5.93922Z" fill="black"/>
<path d="M13.5195 20.2914C9.84656 20.2914 6.87695 17.1823 6.87695 13.3369C6.87695 9.49141 9.84656 6.38232 13.5195 6.38232C17.1924 6.38232 20.1621 9.49141 20.1621 13.3369C20.1621 17.1823 17.1534 20.2914 13.5195 20.2914ZM13.5195 8.42778C10.9406 8.42778 8.83064 10.6369 8.83064 13.3369C8.83064 16.0369 10.9406 18.246 13.5195 18.246C16.0984 18.246 18.2084 16.0369 18.2084 13.3369C18.2084 10.6369 16.0984 8.42778 13.5195 8.42778Z" fill="black"/>
<path d="M21.4902 7.32247C22.3102 7.32247 22.975 6.62648 22.975 5.76792C22.975 4.90937 22.3102 4.21338 21.4902 4.21338C20.6701 4.21338 20.0054 4.90937 20.0054 5.76792C20.0054 6.62648 20.6701 7.32247 21.4902 7.32247Z" fill="black"/>
</svg>
