<svg width="262" height="96" viewBox="0 0 262 96" fill="none" xmlns="http://www.w3.org/2000/svg">
<g clip-path="url(#clip0)">
<path d="M257.632 13.0808L256.919 0.000185771L251.228 0.310054L5.59172 13.6834L0 13.9878L0.712156 27.0684L6.30387 26.764L9.30471 81.8824L3.713 82.1868L4.42515 95.2674L10.0169 94.963L255.653 81.5897L261.345 81.2798L260.632 68.1992L254.941 68.5091L251.94 13.3907L257.632 13.0808Z" fill="#FFED00"/>
<path d="M121.877 30.4865C122.177 30.4702 122.698 30.8424 123.44 31.6032L123.556 31.8973C123.389 32.5073 123.411 32.9067 123.422 33.1064L124.085 45.2883C124.123 45.9873 123.84 46.3032 123.341 46.3303C122.841 46.3575 122.132 46.1959 121.111 45.8508C120.712 45.8726 120.507 45.7836 120.302 45.6946C120.008 45.8108 119.708 45.8271 119.508 45.838C119.209 45.8543 118.604 45.787 117.889 45.5255C117.678 45.3367 117.562 45.0426 117.54 44.6432L117.263 39.5507L117.376 37.9422L117.321 36.9437L111.43 37.2644L111.495 38.4627C111.517 38.8621 111.853 41.3475 112.491 45.7192L112.335 46.5289L112.868 56.3144C112.873 56.4143 112.884 56.614 112.895 56.8137C113.011 57.1078 113.117 57.2022 113.122 57.3021C112.955 57.9121 112.871 58.2171 112.877 58.3169L112.882 58.4168C112.988 58.5112 113.098 58.7054 113.214 58.9996L113.185 60.3031C113.69 60.3758 114.089 60.354 114.389 60.3377L119.282 60.0713L118.896 52.9818C118.858 52.2829 119.141 51.967 119.74 51.9344C122.393 50.9888 123.874 50.6077 124.174 50.5914C124.573 50.5696 124.794 50.9582 124.832 51.6571L125.539 64.6379C125.577 65.3369 125.305 65.8524 124.717 66.0848L124.617 66.0902C121.71 66.0481 120.107 66.0353 119.808 66.0516L111.72 66.4919C111.021 66.53 110.022 66.5843 108.824 66.6496C108.724 66.655 108.729 66.7549 108.63 66.7603C108.03 66.7929 107.704 66.31 107.649 65.3114C107.549 65.3169 107.23 63.131 106.697 58.8537L106.539 55.958C106.528 55.7583 106.407 55.3643 106.28 54.8705C106.274 54.7706 106.331 53.9664 106.349 52.4631C106.122 51.9747 106.006 51.6806 105.99 51.3811L105.778 47.4868C105.761 47.1873 105.928 46.5773 106.163 45.3628L105.94 41.2688C105.618 40.8857 105.402 40.597 105.386 40.2975C105.381 40.1976 105.47 39.9925 105.653 39.6821L105.267 32.5926C105.235 31.9934 105.412 31.5832 105.912 31.556L120.59 30.7568C120.989 30.7351 121.383 30.6135 121.877 30.4865Z" fill="black"/>
<path d="M131.19 30.4801C135.689 30.3353 137.997 30.41 138.002 30.5098C138.202 30.499 138.345 31.2924 138.637 32.979C138.98 33.7615 139.318 34.4441 139.739 34.8218L139.772 35.4209L139.842 36.719C139.848 36.8188 140.064 37.1075 140.401 37.7902L140.429 38.2894C140.528 38.284 141.004 39.6602 141.655 42.4289C141.782 42.9227 142.009 43.4111 142.336 43.894C142.871 46.3686 143.374 48.244 143.85 49.6202C143.866 49.9198 143.877 50.1195 143.882 50.2193C144.822 52.772 145.336 54.8471 145.423 56.4448L145.428 56.5446C145.755 57.0276 145.977 57.4161 145.993 57.7157C146.009 58.0152 145.915 58.1205 145.826 58.3257C146.058 58.9139 146.267 60.9055 146.74 64.0845C146.767 64.5837 146.384 64.905 145.691 65.0429L145.391 65.0592C144.892 65.0864 143.988 65.0355 142.474 64.8175C142.374 64.8229 142.18 64.9336 141.88 64.95C141.58 64.9663 140.954 64.4996 140.206 63.639L140.19 63.3395C140.174 63.0399 140.152 62.6405 140.119 62.0414C139.914 61.9524 139.798 61.6583 139.782 61.3587L139.771 61.159L139.854 60.854C139.849 60.7542 139.633 60.4655 139.201 59.8881C139.101 59.8936 138.901 59.9044 138.607 60.0206C137.903 59.9588 137.503 59.9805 137.503 59.9805L134.119 60.3651C134.019 60.3705 134.019 60.3705 133.92 60.3759C133.351 62.8104 133.139 64.4244 133.187 65.3231C133.004 65.6335 132.81 65.7442 132.61 65.7551C129.204 65.7402 127.496 65.6329 127.485 65.4332C127.374 65.239 127.269 65.1445 127.258 64.9448C127.813 54.8998 128.291 48.9651 128.603 47.3457C129.319 42.099 129.761 39.1707 129.928 38.5607C130.022 38.4554 130.111 38.2503 130.095 37.9507L129.986 35.9537C129.975 35.754 130.059 35.449 130.248 35.2384L130.193 34.2399C130.188 34.14 130.36 33.6299 130.616 32.8148C130.635 31.3115 130.791 30.5019 131.29 30.4747L131.19 30.4801ZM135.659 42.6552L135.246 49.7882C135.446 49.7773 135.556 49.9716 135.578 50.371L135.594 50.6705C135.605 50.8702 135.338 51.4857 134.91 52.8109C134.915 52.9108 134.915 52.9108 134.921 53.0106C135.52 52.978 136.413 52.8292 137.806 52.6533C136.454 46.2172 135.67 42.8549 135.659 42.6552Z" fill="black"/>
<path d="M159.241 30.6556C159.752 30.8281 160.156 30.9062 160.256 30.9008L161.854 30.8138C161.954 30.8084 162.448 30.6813 163.341 30.5326C163.84 30.5054 164.072 31.0936 164.132 32.192C164.551 34.3724 164.727 35.7649 164.76 36.364L164.983 40.458C165.368 53.0556 165.482 60.6607 165.413 63.068C165.129 63.3839 164.541 63.6162 163.842 63.6543C163.642 63.6652 163.343 63.6815 163.043 63.6978C162.949 63.8031 162.749 63.8139 162.649 63.8194L161.251 63.8955C160.248 63.85 159.632 63.5831 159.616 63.2835L158.667 53.2202C158.751 52.9152 158.791 51.8114 158.887 49.9033L158.86 49.404L158.76 49.4095C157.574 53.3798 156.016 57.8712 153.897 63.0941C153.913 63.3937 153.919 63.4935 153.919 63.4935C153.763 64.3032 153.479 64.6191 152.88 64.6517L148.487 64.8909C147.788 64.9289 147.472 64.6457 147.434 63.9467C147.144 60.4573 146.946 58.6654 146.746 58.6763C146.646 58.6817 146.536 58.4875 146.414 58.0935C146.398 57.7939 146.492 57.6887 146.592 57.6832C146.487 57.5888 146.476 57.3891 146.465 57.1894C146.454 56.9897 146.549 56.8844 146.737 56.6738L146.21 52.4963C146.204 52.3965 146.293 52.1914 146.288 52.0915C146.177 51.8972 146.166 51.6975 146.161 51.5977C146.36 51.5868 146.313 48.8854 146.22 43.4825C146.009 43.2936 145.993 42.9941 145.976 42.6945C146.154 42.2842 146.283 40.9753 146.264 38.7731C146.198 37.5749 146.278 35.3673 146.399 32.0558C146.582 31.7454 146.876 31.6293 147.375 31.6021L151.27 31.3901C151.869 31.3574 152.179 31.5408 152.306 32.0347C152.539 32.6229 152.655 32.917 152.666 33.1167C152.709 33.9155 152.765 38.6195 152.838 47.3283C153.407 44.8938 154.186 42.6482 155.087 40.7965C155.07 40.4969 155.148 40.0921 155.405 39.2769C155.394 39.0772 155.577 38.7668 155.855 38.3511C157.518 33.9542 158.492 31.5978 158.664 31.0876C158.947 30.7718 159.142 30.661 159.241 30.6556ZM159.872 22.0085C160.272 21.9868 160.421 22.88 160.518 24.6773C160.605 26.275 160.665 27.3733 160.687 27.7728C160.698 27.9725 160.509 28.183 160.021 28.4099C160.026 28.5098 159.926 28.5152 159.732 28.6259C159.532 28.6368 159.222 28.4534 158.606 28.1865C158.207 28.2082 156.615 28.3951 153.724 28.6526C152.116 28.5398 151.212 28.4889 151.107 28.3945L150.812 28.5107L149.914 28.5596C149.814 28.565 149.425 28.7865 148.843 29.1186C148.543 29.1349 148.311 28.5467 148.245 27.3485C148.026 25.1572 147.955 23.8591 147.928 23.3598C147.912 23.0603 148.106 22.9496 148.4 22.8334L150.009 22.9461L159.872 22.0085Z" fill="black"/>
<path d="M165.955 28.8877L184.328 27.8874C184.827 27.8603 185.143 28.1435 185.176 28.7426L185.203 29.2419C185.225 29.6413 185.236 29.841 185.136 29.8464C185.352 30.1351 185.363 30.3348 185.384 30.7342L185.542 33.6299C185.58 34.3289 185.302 34.7446 184.703 34.7772L178.812 35.098L180.28 62.0581C180.307 62.5573 180.024 62.8732 179.624 62.8949C177.516 62.8094 176.413 62.7693 176.113 62.7856C175.725 63.0071 175.43 63.1233 175.131 63.1396C174.232 63.1885 173.822 63.0105 173.806 62.711C173.706 62.7164 173.695 62.5167 173.679 62.2171L173.2 53.4302C173.189 53.2305 173.173 52.9309 173.157 52.6313C173.246 52.4262 173.24 52.3264 173.34 52.3209C173.01 49.9353 172.839 48.6427 172.623 48.354L172.618 48.2542L172.947 46.9343L172.316 35.3515L166.525 35.6668C165.926 35.6994 165.615 35.516 165.588 35.0168L165.294 29.6247C165.267 29.1255 165.456 28.9149 165.955 28.8877Z" fill="black"/>
<path d="M187.979 26.8877L203.656 26.0342C204.665 26.1795 205.186 26.5517 205.213 27.051L205.556 33.3417C205.561 33.4415 205.777 33.7302 206.104 34.2132L206.12 34.5127C206.148 35.012 206.069 35.4168 205.886 35.7273C205.997 35.9215 206.107 36.1158 206.113 36.2156C206.062 37.1197 206.089 37.619 206.105 37.9186C206.105 37.9186 206.006 37.924 206.011 38.0239C206.222 38.2127 206.332 38.407 206.343 38.6067C206.392 39.5053 206.33 40.2097 206.269 40.9141C206.485 41.2028 206.601 41.4969 206.617 41.7965L206.628 41.9962C206.65 42.3956 206.561 42.6007 206.472 42.8059C206.693 43.1944 206.809 43.4885 206.82 43.6882L206.648 44.1984C206.648 44.1984 206.653 44.2982 206.659 44.3981C206.575 44.7031 206.591 45.0026 206.602 45.2023L206.635 45.8014C206.651 46.101 206.662 46.3007 206.767 46.3951C206.684 46.7001 206.695 46.8998 206.695 46.8998L206.949 47.8875C206.865 48.1925 206.782 48.4974 206.787 48.5973L206.928 51.1935C207.139 51.3823 207.25 51.5766 207.266 51.8761C207.277 52.0758 207.182 52.1811 207.093 52.3862C207.099 52.4861 207.104 52.586 207.204 52.5805C207.186 54.0837 207.13 54.888 207.13 54.888C207.24 55.0823 207.246 55.1821 207.251 55.282C207.168 55.587 207.073 55.6922 207.079 55.7921C207.4 56.1752 207.521 56.5692 207.532 56.7689C207.36 57.279 207.293 57.8835 207.331 58.5825L207.672 61.1678C207.688 61.4674 207.499 61.6779 207.005 61.805C206.706 61.8213 206.601 61.7269 206.501 61.7323C206.406 61.8376 206.207 61.8485 206.107 61.8539L205.907 61.8648C205.197 61.7031 204.792 61.625 204.692 61.6304L203.095 61.7174C202.895 61.7283 202.795 61.7337 202.695 61.7392C202.496 61.75 202.296 61.7609 202.196 61.7663L200.698 61.8479C200.099 61.8805 199.395 61.8187 198.391 61.7732C198.202 61.9838 198.002 61.9947 197.803 62.0055L194.707 62.1741C194.208 62.2013 193.004 62.1666 191.196 62.0648C191.002 62.1755 190.902 62.181 190.702 62.1918C190.103 62.2244 189.776 61.7415 189.727 60.8428C189.051 55.7721 188.693 52.8873 188.65 52.0884L187.922 38.7083L188.112 36.6949L188.096 36.3954C187.885 36.2065 187.775 36.0123 187.758 35.7127L187.92 35.0029C187.709 34.814 187.699 34.6143 187.688 34.4146C187.682 34.3148 187.771 34.1096 187.86 33.9045C187.833 33.4052 187.619 31.3138 187.218 27.6301C187.196 27.2307 187.385 27.0201 187.979 26.8877ZM193.835 33.2788C193.857 33.6782 193.895 34.3771 194.049 35.3702L193.955 35.4755C194.065 35.6698 194.076 35.8695 194.082 35.9693C194.093 36.169 194.004 36.3742 193.915 36.5793C194.142 37.0677 194.158 37.3673 194.174 37.6668L194.468 43.0588C194.573 43.1532 194.689 43.4474 194.811 43.8413C194.911 43.8359 195.021 44.0302 195.043 44.4296C195.054 44.6293 194.871 44.9397 194.393 45.3663C194.785 47.0475 195.088 48.9338 195.208 51.1305C195.218 51.3302 195.34 51.7242 195.362 52.1236C195.367 52.2235 195.373 52.3233 195.284 52.5285C195.394 52.7227 195.405 52.9224 195.416 53.1221L195.432 53.4217C195.454 53.8211 195.392 54.5255 195.347 55.5295C197.832 55.1939 199.33 55.1123 199.829 55.0851L201.028 55.0199L200.968 53.9215C200.952 53.622 200.935 53.3224 200.814 52.9284C200.803 52.7287 200.892 52.5236 201.081 52.313C200.905 50.9205 200.85 49.922 200.829 49.5226C200.607 49.1341 200.491 48.8399 200.48 48.6402L199.98 39.4538C199.78 39.4647 199.669 39.2704 199.642 38.7712C199.637 38.6713 199.726 38.4662 199.909 38.1558L199.681 33.962C199.67 33.7623 199.654 33.4627 199.627 32.9635L193.835 33.2788Z" fill="black"/>
<path d="M209.391 26.5231C211 26.6359 212.298 26.5652 213.296 26.5108L223.381 25.9618C224.08 25.9237 224.396 26.207 224.423 26.7062L225.168 40.386C226.261 40.2263 227.16 40.1774 227.958 40.1339C228.568 40.301 228.784 40.5897 228.812 41.0889L229.812 59.4617C229.839 59.961 229.556 60.2768 228.857 60.3149L211.882 61.2391C211.183 61.2771 210.867 60.9939 210.829 60.2949L209.742 40.3245C209.215 39.8524 208.9 39.5692 208.883 39.2696C208.967 38.9646 208.951 38.6651 208.945 38.5652L208.825 36.3685L208.98 31.8534L208.795 28.4584C208.774 28.059 208.752 27.6596 208.719 27.0605C208.714 26.9606 208.903 26.75 209.391 26.5231ZM215.63 32.5929L215.929 38.0848C215.94 38.2845 215.857 38.5895 215.773 38.8945C215.995 39.283 216.105 39.4773 216.116 39.677L215.944 40.1871C216.054 40.3814 216.165 40.5757 216.17 40.6755L216.192 41.0749L216.298 41.1693L218.994 41.0226L218.531 32.5351L215.636 32.6928L215.63 32.5929ZM218.337 47.3676L216.34 47.4763L216.754 55.0651L217.059 55.1486L220.154 54.9801C221.252 54.9203 222.151 54.8714 222.745 54.7389C222.431 52.6529 222.36 51.3548 222.333 50.8556L222.121 46.9613C219.93 47.1808 218.637 47.3513 218.337 47.3676Z" fill="black"/>
<path d="M53.4758 61.7509L53.0838 60.0698L53.3018 58.5557L53.1061 54.961L53.2678 54.2512L53.0463 53.8626L53.0701 52.4593L52.8091 47.6664L51.8512 41.1087L51.9239 40.604L51.6718 37.8136L49.312 34.9377L48.1083 34.903L39.2215 35.3869L37.3134 35.2905L36.2205 35.4501L32.9214 39.2351L33.297 40.6167L33.8135 50.1026L33.9296 50.3967L34.1688 54.7902L38.8925 56.9366L45.283 56.5887L46.376 56.429L47.2666 63.5912L47.3991 64.1849L41.2083 64.5219L41.1159 62.8245L40.1574 61.775L35.5696 62.1249L34.974 64.0602L35.529 68.7369L39.0762 71.3479L42.8597 70.9417L48.1519 70.6535L51.5632 70.7683L51.5142 69.8696L53.8094 66.0392L53.6715 65.3456L53.4758 61.7509ZM39.8833 43.8634L40.0395 43.0537L39.8853 42.0607L40.1794 41.9445L43.6633 41.5545L45.5605 41.4512L45.6421 42.949L46.2461 48.5244L46.3894 49.3178L40.8975 49.6168L40.3039 49.7493L40.081 45.6553L40.299 44.1412L39.8833 43.8634Z" fill="#010202"/>
<path d="M76.5521 66.2035L76.1567 62.6197L75.7648 60.9385L75.8775 59.33L75.4821 55.7462L75.5439 55.0418L75.3224 54.6533L75.2463 53.2553L74.7857 48.4733L73.5336 42.0318L73.6063 41.5271L73.1545 38.7476L70.6004 35.9824L69.3968 35.9477L60.5317 36.831L58.629 36.8344L57.5361 36.9941L54.6527 41.0568L55.1282 42.433L56.1439 51.8918L56.2601 52.1859L56.699 56.5685L61.5116 58.5098L67.8859 57.8623L68.9788 57.7026L70.169 64.8485L70.4014 65.4367L64.2268 66.0733L64.0346 64.3813L63.0815 63.4317L58.4102 64.0866L57.9198 66.1163L58.6746 70.7821L62.4106 73.1826L66.1833 72.5766L71.4591 71.9889L74.8595 71.9039L74.8106 71.0053L76.9006 67.0859L76.5521 66.2035ZM61.7926 45.2749L61.8489 44.4707L61.5949 43.483L61.889 43.3669L65.3675 42.877L67.2593 42.6739L67.4407 44.1662L68.3388 49.6255L68.582 50.4134L63.1064 51.012L62.5182 51.2443L62.0956 47.1612L62.2083 45.5527L61.7926 45.2749Z" fill="#010202"/>
<path d="M99.4037 62.8562L99.208 59.2615L98.8161 57.5803L99.0341 56.0662L98.8384 52.4716L99 51.7617L98.7786 51.3732L98.8023 49.9698L98.5414 45.1769L97.5835 38.6193L97.6561 38.1146L97.2988 35.2298L94.9389 32.3538L93.7353 32.3192L84.8484 32.803L82.9404 32.7066L81.8474 32.8663L78.7535 36.7402L79.1291 38.1218L79.6456 47.6078L79.7617 47.9019L80.0009 52.2954L84.7246 54.4417L91.1151 54.0938L92.2081 53.9342L93.0987 61.0963L93.2312 61.69L87.0404 62.0271L86.948 60.3296L85.9895 59.2801L81.3019 59.6355L80.7062 61.5707L81.2613 66.2475L84.8085 68.8585L88.592 68.4522L93.8841 68.1641L97.2954 68.2788L97.2465 67.3802L99.5416 63.5497L99.4037 62.8562ZM85.7154 41.3686L85.8716 40.5589L85.7174 39.5658L86.0115 39.4496L89.4954 39.0596L91.3926 38.9564L91.4742 40.4541L92.0782 46.0295L92.2215 46.8229L86.7296 47.1219L86.136 47.2544L85.9131 43.1605L86.1311 41.6464L85.7154 41.3686Z" fill="#010202"/>
</g>
<defs>
<clipPath id="clip0">
<rect width="257.3" height="81.4" fill="white" transform="translate(0 13.9878) rotate(-3.11631)"/>
</clipPath>
</defs>
</svg>
