<svg width="39" height="24" viewBox="0 0 39 24" fill="none" xmlns="http://www.w3.org/2000/svg">
<path d="M38.4965 2.47266C37.9907 2.03629 36.1844 2.10902 34.3781 2.10902C32.4995 2.10902 30.6931 2.10902 30.2596 2.3272C29.8984 2.47266 28.9591 4.65447 27.803 6.83629C26.5024 9.38175 24.8406 11.7817 23.8291 11.7817C22.5285 11.7817 22.8175 7.63629 22.8898 4.58175C22.962 2.54538 22.6008 1.96357 22.3117 1.74538C21.5892 1.23629 19.7106 0.79993 19.7106 0.79993C19.7106 0.79993 13.9304 0.363566 13.1356 2.90902C14.2194 3.05448 16.098 2.69084 15.3754 10.4727C15.3754 10.8363 14.5084 14.0363 11.835 9.74538C11.1847 8.65447 8.5836 2.18175 7.71656 2.18175C4.75418 2.10902 1.79179 1.96357 0.780239 2.54538C-0.159054 3.05448 2.0808 7.56357 5.83798 13.5272C8.94487 18.3999 12.1963 22.2545 17.9043 23.1999C18.9881 23.2727 21.7337 23.4181 22.6008 22.9817C23.1788 22.6908 22.4563 18.4727 24.4793 18.0363C25.4186 17.8908 28.8146 22.3999 30.1151 22.9817C30.9099 23.2727 32.644 23.4181 34.4503 23.3454C36.4012 23.2727 38.5688 23.4908 38.7855 22.1817C39.2913 19.2727 32.933 15.4908 32.7885 13.6727C32.644 12.3636 35.1006 9.96356 36.3289 8.21811C37.774 5.96357 39.5081 3.27266 38.4965 2.47266Z" fill="black"/>
</svg>
